<svg width="127" height="32" viewBox="0 0 127 32" fill="none" xmlns="http://www.w3.org/2000/svg">
<path d="M11.6357 10.1817C11.6357 4.55848 16.1942 0 21.8174 0C27.4405 0 31.999 4.55848 31.999 10.1817V11.6362C31.999 13.2428 30.6965 14.5452 29.0899 14.5452C27.4833 14.5452 26.1809 13.2428 26.1809 11.6362V10.1817C26.1809 7.77172 24.2273 5.81809 21.8174 5.81809C19.4074 5.81809 17.4538 7.77172 17.4538 10.1817V14.5452C17.4538 16.1518 16.1514 17.4543 14.5448 17.4543C12.9382 17.4543 11.6357 16.1518 11.6357 14.5452V10.1817Z" fill="#14F0C8"/>
<path d="M10.1816 31.9995C4.55846 31.9995 -2.19184e-07 27.441 -4.89561e-07 21.8179C-7.59938e-07 16.1947 4.55846 11.6362 10.1816 11.6362L14.5451 11.6362C16.1518 11.6362 17.4542 12.9386 17.4542 14.5452C17.4542 16.1519 16.1518 17.4543 14.5451 17.4543L10.1816 17.4543C7.77169 17.4543 5.81806 19.4079 5.81806 21.8179C5.81806 24.2278 7.77169 26.1814 10.1816 26.1814L11.6361 26.1814C13.2427 26.1814 14.5452 27.4838 14.5452 29.0905C14.5452 30.6971 13.2427 31.9995 11.6361 31.9995L10.1816 31.9995Z" fill="#64C3FF"/>
<rect x="7.56445" y="26.1816" width="24.4359" height="5.81809" rx="2.90904" fill="#FFDC46"/>
<rect x="31.999" y="8.72754" width="23.2724" height="5.81806" rx="2.90903" transform="rotate(90 31.999 8.72754)" fill="#FA5A8C"/>
<path d="M26.1799 11.6363V10.1817C26.1799 9.85712 26.1445 9.54078 26.0772 9.23638C25.7067 7.55897 25.3736 5.44756 26.5741 4.21885C27.5843 3.18493 29.26 3.0868 30.1014 4.26223C31.2953 5.93031 31.998 7.97396 31.998 10.1817V11.6363C31.998 13.2429 30.6956 14.5453 29.089 14.5453C27.4823 14.5453 26.1799 13.2429 26.1799 11.6363Z" fill="#14F0C8"/>
<rect x="11.6357" y="11.6365" width="5.81806" height="5.81809" rx="2.90903" fill="#50AAE6"/>
<rect x="26.1797" y="26.1816" width="5.81806" height="5.81809" rx="2.90903" fill="#DC5078"/>
<rect x="7.56445" y="26.1816" width="5.81806" height="5.81809" rx="2.90903" fill="#E1BE3C"/>
<rect x="26.1797" y="8.72754" width="5.81806" height="5.81809" rx="2.90903" fill="#14DCB4"/>
<path d="M44.3296 26V8.07999H48.1696V22.544H56.2848V26H44.3296ZM65.1402 26.256C63.7578 26.256 62.5205 25.9573 61.4282 25.36C60.353 24.7456 59.4997 23.9093 58.8682 22.8512C58.2538 21.7931 57.9466 20.5813 57.9466 19.216C57.9466 17.8507 58.2538 16.6475 58.8682 15.6064C59.4997 14.5483 60.353 13.712 61.4282 13.0976C62.5205 12.4832 63.7578 12.176 65.1402 12.176C66.5055 12.176 67.7258 12.4832 68.801 13.0976C69.8933 13.712 70.7466 14.5483 71.361 15.6064C71.9754 16.6475 72.2826 17.8507 72.2826 19.216C72.2826 20.5813 71.9754 21.7931 71.361 22.8512C70.7466 23.9093 69.8933 24.7456 68.801 25.36C67.7258 25.9573 66.5055 26.256 65.1402 26.256ZM65.1402 23.0816C65.8058 23.0816 66.4031 22.9195 66.9322 22.5952C67.4613 22.2539 67.8709 21.7931 68.161 21.2128C68.4682 20.6155 68.6218 19.9499 68.6218 19.216C68.6218 18.4651 68.4682 17.7995 68.161 17.2192C67.8709 16.6219 67.4613 16.1611 66.9322 15.8368C66.4031 15.4955 65.8058 15.3248 65.1402 15.3248C64.4575 15.3248 63.8517 15.4955 63.3226 15.8368C62.7935 16.1781 62.3754 16.6389 62.0682 17.2192C61.761 17.7995 61.6159 18.4651 61.633 19.216C61.6159 19.9499 61.761 20.6155 62.0682 21.2128C62.3754 21.7931 62.7935 22.2539 63.3226 22.5952C63.8517 22.9195 64.4575 23.0816 65.1402 23.0816ZM76.412 31.888L79.3816 24.9248L79.4328 27.024L72.828 12.4576H76.9496L80.252 20.2656C80.3886 20.5557 80.5166 20.8971 80.636 21.2896C80.7726 21.6651 80.8835 22.032 80.9688 22.3904L80.3544 22.6464C80.4568 22.3563 80.5763 22.0235 80.7128 21.648C80.8494 21.2725 80.9859 20.8715 81.1224 20.4448L83.964 12.4576H88.1112L82.428 26L80.0984 31.888H76.412ZM96.1152 26.256C94.7328 26.256 93.4955 25.9573 92.4032 25.36C91.328 24.7456 90.4747 23.9093 89.8432 22.8512C89.2288 21.7931 88.9216 20.5813 88.9216 19.216C88.9216 17.8507 89.2288 16.6475 89.8432 15.6064C90.4747 14.5483 91.328 13.712 92.4032 13.0976C93.4955 12.4832 94.7328 12.176 96.1152 12.176C97.4806 12.176 98.7008 12.4832 99.776 13.0976C100.868 13.712 101.722 14.5483 102.336 15.6064C102.95 16.6475 103.258 17.8507 103.258 19.216C103.258 20.5813 102.95 21.7931 102.336 22.8512C101.722 23.9093 100.868 24.7456 99.776 25.36C98.7008 25.9573 97.4806 26.256 96.1152 26.256ZM96.1152 23.0816C96.7808 23.0816 97.3782 22.9195 97.9072 22.5952C98.4363 22.2539 98.8459 21.7931 99.136 21.2128C99.4432 20.6155 99.5968 19.9499 99.5968 19.216C99.5968 18.4651 99.4432 17.7995 99.136 17.2192C98.8459 16.6219 98.4363 16.1611 97.9072 15.8368C97.3782 15.4955 96.7808 15.3248 96.1152 15.3248C95.4326 15.3248 94.8267 15.4955 94.2976 15.8368C93.7686 16.1781 93.3504 16.6389 93.0432 17.2192C92.736 17.7995 92.591 18.4651 92.608 19.216C92.591 19.9499 92.736 20.6155 93.0432 21.2128C93.3504 21.7931 93.7686 22.2539 94.2976 22.5952C94.8267 22.9195 95.4326 23.0816 96.1152 23.0816ZM106.018 26V7.05599H109.653V26H106.018ZM114.862 31.888L117.832 24.9248L117.883 27.024L111.278 12.4576H115.4L118.702 20.2656C118.839 20.5557 118.967 20.8971 119.086 21.2896C119.223 21.6651 119.334 22.032 119.419 22.3904L118.804 22.6464C118.907 22.3563 119.026 22.0235 119.163 21.648C119.299 21.2725 119.436 20.8715 119.572 20.4448L122.414 12.4576H126.561L120.878 26L118.548 31.888H114.862Z" fill="white"/>
</svg>
